<svg xmlns="http://www.w3.org/2000/svg" width="36" height="36" viewBox="0 0 36 36"><g transform="translate(0 -1016.362)"><path fill="#e9eded" style="line-height:normal;text-indent:0;text-align:start;text-decoration-line:none;text-decoration-style:solid;text-decoration-color:#000;text-transform:none;block-progression:tb;isolation:auto;mix-blend-mode:normal" d="m 17.99286,1017.3557 c -0.4899,0 -0.97905,0.028 -1.4668,0.074 a 1.0001,1.0001 0 0 0 -0.006,0 c -0.24062,0.024 -0.47937,0.052 -0.71875,0.086 -0.33528,0.041 -0.66776,0.091 -1,0.1523 a 1.0001,1.0001 0 0 0 -0.0273,0.01 c -0.18246,0.039 -0.36383,0.081 -0.54492,0.125 0,0 -0.002,0 -0.002,0 -0.008,0 -0.0156,-2e-4 -0.0234,0.01 -0.35472,0.079 -0.70771,0.1682 -1.05664,0.2696 a 1.0001,1.0001 0 0 0 -0.0195,0.01 c -0.17594,0.055 -0.35134,0.1128 -0.52539,0.1738 -0.36787,0.1209 -0.73303,0.2547 -1.09179,0.4004 a 1.0001,1.0001 0 0 0 -0.0215,0.01 c -0.12083,0.052 -0.23979,0.1069 -0.35937,0.1621 -0.41161,0.1803 -0.81687,0.3774 -1.21289,0.5898 a 1.0001,1.0001 0 0 0 -0.0215,0.014 c -0.0625,0.036 -0.12547,0.071 -0.1875,0.1074 -0.43215,0.2405 -0.85411,0.5002 -1.26367,0.7774 a 1.0001,1.0001 0 0 0 -0.0176,0.012 c -0.0335,0.024 -0.0663,0.048 -0.0996,0.072 -0.003,0 -0.006,0.01 -0.01,0.01 l -0.006,0 c -0.42813,0.2967 -0.84309,0.6125 -1.24219,0.9472 a 1.0001,1.0001 0 0 0 -0.008,0.01 l -0.041,0.035 c -0.42065,0.3567 -0.82302,0.7351 -1.20703,1.1309 a 1.0001,1.0001 0 0 0 -0.002,0 c -0.39462,0.4072 -0.76716,0.8329 -1.11914,1.2774 -2.38337,2.9992 -3.68472,6.7159 -3.69141,10.5468 0,9.377 7.623,17 17,17 a 1.0001,1.0001 0 0 0 0.002,0 c 2.76882,-0.01 5.48115,-0.7201 7.92383,-2.0175 a 1.0001,1.0001 0 0 0 0.32617,-0.127 c 0.10742,-0.065 0.21436,-0.1302 0.32032,-0.1973 l 0.0351,-0.023 c 0.30154,-0.1755 0.59655,-0.3589 0.88672,-0.5527 a 1.0001,1.0001 0 0 0 0.0137,-0.01 c 0.15044,-0.1041 0.30027,-0.2114 0.44727,-0.3203 0.31363,-0.2247 0.62035,-0.4596 0.91797,-0.7051 a 1.0001,1.0001 0 0 0 0.0117,-0.012 c 0.11656,-0.099 0.23187,-0.2001 0.3457,-0.3027 l 0.0117,-0.01 c 0.3024,-0.2653 0.59609,-0.5421 0.8789,-0.8282 l 0.0195,-0.019 c 0.0574,-0.056 0.11523,-0.1116 0.17187,-0.1679 a 1.0001,1.0001 0 0 0 0.22852,-0.3535 c 2.46308,-2.7199 4.03385,-6.1336 4.37695,-9.793 a 1.0001,1.0001 0 0 0 0.008,-0.055 c 0.0137,-0.1472 0.0253,-0.2939 0.0352,-0.4414 a 1.0001,1.0001 0 0 0 -0.006,-0.1778 c 0.0205,-0.2894 0.0393,-0.579 0.0449,-0.8691 a 1.0001,1.0001 0 0 0 0,-0.019 c -0.008,-2.8698 -0.77185,-5.6781 -2.16211,-8.1855 a 1.0001,1.0001 0 0 0 -0.0859,-0.2188 c -0.003,-0.01 -0.009,-0.012 -0.0117,-0.018 -0.0116,-0.021 -0.0235,-0.042 -0.0352,-0.062 a 1.0001,1.0001 0 0 0 -0.008,-0.016 c -10e-4,0 -0.003,2e-4 -0.004,-0.01 a 1.0001,1.0001 0 0 0 -0.16016,-0.207 1.0001,1.0001 0 0 0 -0.01,-0.01 c -1.53439,-2.5628 -3.68848,-4.7007 -6.30274,-6.1524 a 1.0001,1.0001 0 0 0 -0.002,0 c -0.49633,-0.2743 -1.00608,-0.5246 -1.52734,-0.748 a 1.0001,1.0001 0 0 0 -0.004,0 c -0.4664,-0.1976 -0.94166,-0.3742 -1.42383,-0.5293 -0.043,-0.016 -0.0857,-0.032 -0.1289,-0.047 a 1.0001,1.0001 0 0 0 -0.0547,-0.018 1.0001,1.0001 0 0 0 -0.0859,-0.022 l -0.01,0 c -0.40165,-0.1206 -0.80731,-0.2297 -1.2168,-0.3203 l -0.041,-0.01 c -0.0845,-0.022 -0.1691,-0.044 -0.2539,-0.064 a 1.0001,1.0001 0 0 0 -0.0508,-0.012 c -0.33536,-0.064 -0.67119,-0.1168 -1.00977,-0.1602 l -0.043,-0.012 c -0.2024,-0.034 -0.40588,-0.065 -0.60937,-0.092 a 1.0001,1.0001 0 0 0 -0.0488,0 c -0.27421,-0.022 -0.54927,-0.038 -0.82422,-0.047 l 0.0449,0 c -0.3032,-0.023 -0.60613,-0.04 -0.91015,-0.047 a 1.0001,1.0001 0 0 0 -0.0313,0 l 0.002,-0 z m 0.008,1 a 16,16 0 0 1 0.85742,0.043 16,16 0 0 1 0.77539,0.043 16,16 0 0 1 0.61328,0.092 16,16 0 0 1 0.99219,0.1562 16,16 0 0 1 0.27735,0.07 16,16 0 0 1 1.27343,0.334 16,16 0 0 1 0.01,0 16,16 0 0 1 0.16016,0.059 16,16 0 0 1 1.33984,0.498 16,16 0 0 1 1.4375,0.7032 16,16 0 0 1 6.0957,6 l 0.002,0 a 16,16 0 0 1 0.041,0.074 16,16 0 0 0 0,0 16,16 0 0 1 2.125,7.9238 16,16 0 0 1 -0.0508,1 l 0.0137,0 a 16,16 0 0 1 -0.0332,0.416 16,16 0 0 1 -0.002,0.01 16,16 0 0 1 -4.33593,9.5762 l 0.0156,0 a 16,16 0 0 1 -0.17969,0.1758 16,16 0 0 1 -0.85546,0.8066 16,16 0 0 1 -0.33594,0.2949 16,16 0 0 1 -0.87695,0.6739 16,16 0 0 1 -0.41993,0.3007 16,16 0 0 1 -0.86914,0.5411 16,16 0 0 1 -0.33398,0.207 l -0.0273,0 a 16,16 0 0 1 -7.70899,2 16,16 0 0 1 -16,-16 16,16 0 0 1 3.47461,-9.9277 16,16 0 0 1 1.05469,-1.2032 16,16 0 0 1 1.14062,-1.0664 16,16 0 0 1 0.041,-0.035 16,16 0 0 1 1.18359,-0.9023 16,16 0 0 1 0.10938,-0.078 16,16 0 0 1 1.20898,-0.7422 16,16 0 0 1 0.17578,-0.1016 16,16 0 0 1 1.14063,-0.5546 16,16 0 0 1 0.35742,-0.1602 16,16 0 0 1 1.04492,-0.3828 16,16 0 0 1 0.49414,-0.1641 16,16 0 0 1 1.01758,-0.2597 16,16 0 0 1 0.53711,-0.1231 16,16 0 0 1 0.96094,-0.1465 16,16 0 0 1 0.67773,-0.082 16,16 0 0 1 1.38086,-0.07 z" color="#000" font-family="sans-serif" font-weight="400" overflow="visible"/><g transform="translate(2 -2.006)"><circle style="isolation:auto;mix-blend-mode:normal" cx="16" cy="1036.362" r="16" fill="#ffe90a" color="#000" overflow="visible"/><path fill="#ffcb0a" style="isolation:auto;mix-blend-mode:normal" d="M 16,0 A 16,16 0 0 0 0.82421875,11 L 8,11 c 0.5540096,0 1,0.44599 1,1 0,0.55401 -0.4459904,1 -1,1 l -2,0 c -0.5540048,0 -1,0.445995 -1,1 0,0.554005 0.4459952,1 1,1 l 4,0 c 0.554005,0 1,0.445995 1,1 0,0.554005 -0.445995,1 -1,1 L 0.05078125,17 A 16,16 0 0 0 1.1796875,22 L 13,22 c 0.554005,0 1,0.445995 1,1 0,0.554005 -0.445995,1 -1,1 l -2,0 c -0.554005,0 -1,0.445995 -1,1 0,0.554005 0.445995,1 1,1 l 4,0 c 0.554005,0 1,0.445995 1,1 0,0.554005 -0.445995,1 -1,1 l -9.5527344,0 a 16,16 0 0 0 2.84375,2 l 15.4453124,0 a 16,16 0 0 0 3.871094,-3 L 25,27 c -0.554005,0 -1,-0.445995 -1,-1 0,-0.554005 0.445995,-1 1,-1 l 4.208984,0 a 16,16 0 0 0 1.966797,-4 L 20,21 c -0.554005,0 -1,-0.446 -1,-1 0,-0.554 0.445995,-1 1,-1 l 2,0 c 0.554005,0 1,-0.445995 1,-1 0,-0.554005 -0.445995,-1 -1,-1 l -1,0 c -0.554005,0 -1,-0.446 -1,-1 0,-0.554 0.445995,-1 1,-1 l 10.947266,0 A 16,16 0 0 0 31.679688,13 L 16,13 c -0.554005,0 -1,-0.445995 -1,-1 0,-0.554005 0.445995,-1 1,-1 l 15.15625,0 A 16,16 0 0 0 29.833984,8 L 14,8 C 13.446,8 13,7.554 13,7 13,6.446 13.446,6 14,6 l 4,0 0.5,0 C 18.411307,6 18.33177,5.9706944 18.25,5.9492188 18.678986,5.8365517 19,5.4653067 19,5 19,4.5346933 18.678986,4.1634482 18.25,4.0507812 18.33177,4.0293056 18.411307,4 18.5,4 L 18,4 16,4 C 15.446,4 15,3.554 15,3 15,2.446 15.446,2 16,2 l 7.736328,0 A 16,16 0 0 0 16,0 Z m -4,11 a 1,1 0 0 1 1,1 1,1 0 0 1 -1,1 1,1 0 0 1 -1,-1 1,1 0 0 1 1,-1 z m 17,6 c -0.554005,0 -1,0.445995 -1,1 0,0.554005 0.445995,1 1,1 l 2.705078,0 a 16,16 0 0 0 0.257813,-2 L 29,17 Z M 6,24 a 1,1 0 0 0 -1,1 1,1 0 0 0 1,1 1,1 0 0 0 1,-1 1,1 0 0 0 -1,-1 z" color="#000" overflow="visible" transform="translate(0 1020.362)"/></g></g></svg>